<svg width="230" height="33" viewBox="0 0 230 33" fill="none" xmlns="http://www.w3.org/2000/svg">
<path d="M63.7139 22.582L54.7725 22.582L54.7725 17.6055L63.208 17.6055L63.208 14.4336L54.7725 14.4336L54.7725 9.67578L63.7139 9.67578L63.7139 6.27149L50.6436 6.27148L50.6436 26L63.7139 26L63.7139 22.582ZM66.3525 26L70.3447 26L70.3447 17.1543C70.3447 15.5137 71.3701 14.3652 72.8877 14.3652C74.3643 14.3652 75.2529 15.2949 75.2529 16.8672L75.2529 26L79.0947 26L79.0947 17.0996C79.0947 15.4727 80.0928 14.3652 81.6103 14.3652C83.1553 14.3652 84.0029 15.2949 84.0029 16.9902L84.0029 26L87.9951 26L87.9951 15.9922C87.9951 13.0391 86.0674 11.0703 83.1963 11.0703C81.0498 11.0703 79.2998 12.2324 78.6436 14.0781L78.5615 14.0781C78.0693 12.1641 76.5928 11.0703 74.4736 11.0703C72.4775 11.0703 70.9053 12.2324 70.29 13.9961L70.208 13.9961L70.208 11.3438L66.3525 11.3438L66.3525 26ZM97.1006 13.9824C98.8779 13.9824 100.095 15.2676 100.177 17.1406L93.9561 17.1406C94.0928 15.3086 95.3506 13.9824 97.1006 13.9824ZM100.231 21.5156C99.8623 22.6367 98.7412 23.3613 97.2783 23.3613C95.2412 23.3613 93.915 21.9258 93.915 19.834L93.915 19.5879L104.019 19.5879L104.019 18.3711C104.019 13.9141 101.325 11.0293 97.0596 11.0293C92.7256 11.0293 89.9912 14.0645 89.9912 18.7402C89.9912 23.4297 92.6982 26.3145 97.21 26.3145C100.833 26.3145 103.458 24.3867 103.896 21.5156L100.231 21.5156ZM106.083 26L110.075 26L110.075 17.8106C110.075 15.7461 111.224 14.543 113.192 14.543C113.767 14.543 114.313 14.6387 114.642 14.7754L114.642 11.2617C114.368 11.1797 113.972 11.1113 113.507 11.1113C111.784 11.1113 110.54 12.1231 110.021 13.9824L109.938 13.9824L109.938 11.3438L106.083 11.3438L106.083 26ZM121.587 23.3477C120.233 23.3477 119.331 22.6641 119.331 21.5703C119.331 20.5313 120.179 19.8613 121.669 19.752L124.759 19.5606L124.759 20.627C124.759 22.2129 123.323 23.3477 121.587 23.3477ZM120.274 26.2324C122.106 26.2324 123.925 25.3164 124.745 23.7578L124.827 23.7578L124.827 26L128.683 26L128.683 15.9238C128.683 12.9707 126.235 11.0293 122.476 11.0293C118.593 11.0293 116.173 12.9844 116.022 15.8281L119.673 15.8281C119.864 14.7481 120.808 14.0098 122.298 14.0098C123.802 14.0098 124.759 14.8027 124.759 16.1699L124.759 17.1406L121.067 17.3594C117.417 17.5781 115.366 19.1231 115.366 21.7891C115.366 24.4277 117.485 26.2324 120.274 26.2324ZM131.362 26L135.354 26L135.354 6.2715L131.362 6.2715L131.362 26ZM143.489 26.2324C145.649 26.2324 147.345 25.0977 148.056 23.4844L148.124 23.4844L148.124 26L152.062 26L152.062 6.2715L148.069 6.2715L148.069 13.8594L147.987 13.8594C147.276 12.2324 145.636 11.1113 143.517 11.1113C139.839 11.1113 137.515 13.9961 137.515 18.6445C137.515 23.334 139.825 26.2324 143.489 26.2324ZM144.843 14.3106C146.825 14.3106 148.097 16.0059 148.097 18.6719C148.097 21.3516 146.825 23.0195 144.843 23.0195C142.833 23.0195 141.603 21.3653 141.603 18.6719C141.603 15.9922 142.833 14.3106 144.843 14.3106ZM154.481 15.6504C154.481 17.8106 155.903 19.2598 158.679 19.8887L161.386 20.4903C162.698 20.8047 163.19 21.2149 163.19 21.9531C163.19 22.9102 162.274 23.5117 160.757 23.5117C159.171 23.5117 158.2 22.8008 158.009 21.5703L154.112 21.5703C154.331 24.4278 156.737 26.3145 160.647 26.3145C164.517 26.3145 167.169 24.4141 167.169 21.5293C167.169 19.3418 165.979 18.1797 163.04 17.5235L160.237 16.9219C158.952 16.6211 158.323 16.1289 158.323 15.4043C158.323 14.461 159.226 13.8321 160.606 13.8321C162.083 13.8321 163.026 14.5567 163.108 15.7324L166.786 15.7324C166.731 12.8887 164.339 11.0293 160.661 11.0293C156.901 11.0293 154.481 12.8613 154.481 15.6504Z" fill="#34D35F"/>
<path d="M178.353 26L178.353 9.6758L184.067 9.6758L184.067 6.27151L168.522 6.27151L168.522 9.6758L174.224 9.6758L174.224 26L178.353 26ZM189.358 13.9824C191.136 13.9824 192.353 15.2676 192.435 17.1407L186.214 17.1406C186.351 15.3086 187.608 13.9824 189.358 13.9824ZM192.489 21.5157C192.12 22.6367 190.999 23.3614 189.536 23.3614C187.499 23.3614 186.173 21.9258 186.173 19.834L186.173 19.5879L196.276 19.5879L196.276 18.3711C196.276 13.9141 193.583 11.0293 189.317 11.0293C184.983 11.0293 182.249 14.0645 182.249 18.7403C182.249 23.4297 184.956 26.3145 189.468 26.3145C193.091 26.3145 195.716 24.3867 196.153 21.5157L192.489 21.5157ZM211.657 16.7989C211.479 13.4766 208.964 11.0293 204.999 11.0293C200.61 11.0293 197.808 13.9551 197.808 18.6582C197.808 23.4434 200.61 26.3145 205.026 26.3145C208.882 26.3145 211.466 24.086 211.671 20.627L207.952 20.627C207.706 22.2266 206.667 23.1836 205.067 23.1836C203.085 23.1836 201.854 21.543 201.854 18.6582C201.854 15.8282 203.085 14.1602 205.054 14.1602C206.694 14.1602 207.72 15.2539 207.952 16.7989L211.657 16.7989ZM213.694 26L217.687 26L217.687 17.6328C217.687 15.7051 218.794 14.3789 220.681 14.3789C222.499 14.3789 223.429 15.5274 223.429 17.4141L223.429 26L227.421 26L227.421 16.5664C227.421 13.1758 225.562 11.0703 222.308 11.0703C220.079 11.0703 218.479 12.1094 217.7 13.9551L217.618 13.9551L217.618 6.27151L213.694 6.27151L213.694 26Z" fill="#0C2048"/>
<path d="M42 19.6494C41.8345 20.2415 41.7728 20.8562 41.5395 21.4346C40.2917 24.5289 37.9872 26.436 34.549 26.9071C31.7306 27.2937 29.2626 26.4694 27.2377 24.5121C26.7043 23.9968 26.2633 23.4184 25.848 22.8175C23.3729 19.2383 20.8999 15.6571 18.4237 12.0779C17.5963 10.8819 16.5818 9.85504 15.2456 9.1872C12.3593 7.74529 9.45455 7.74136 6.6423 9.33965C4.13635 10.7639 2.73742 12.9405 2.47634 15.7082C2.25535 18.0609 3.02008 20.152 4.68832 21.9136C6.09136 23.3958 7.83257 24.3066 9.90784 24.5466C12.495 24.8466 14.8056 24.2131 16.7853 22.5421C17.9355 21.5723 18.949 20.4687 20.0992 19.4989C20.3541 19.2845 20.4805 19.2806 20.6583 19.556C20.9523 20.0123 21.272 20.4539 21.5865 20.8985C21.7181 21.0844 21.7489 21.2506 21.5557 21.4188C20.1927 22.606 18.9911 23.9633 17.4874 25.001C15.6619 26.2599 13.6195 26.9022 11.3633 26.9593C8.68159 27.0271 6.2846 26.2786 4.20213 24.6843C1.77122 22.8263 0.365094 20.3999 0.0587883 17.4206C-0.219765 14.7129 0.491522 12.2569 2.19367 10.0783C4.01506 7.74627 6.44392 6.33191 9.45455 5.92373C12.7232 5.48112 15.6516 6.27584 18.2151 8.30002C19.4742 9.29441 20.3356 10.5819 21.2226 11.8527C23.524 15.1506 25.8162 18.4534 28.0981 21.7631C28.9584 23.0112 30.086 23.8994 31.5866 24.3528C35.2078 25.4475 39.0387 23.0329 39.4704 19.4222C39.8476 16.2708 37.5205 13.3113 34.0854 12.9169C32.8417 12.7733 31.6679 13.0477 30.5238 13.4903C30.3213 13.569 30.1086 13.625 29.9102 13.7126C29.6111 13.8444 29.496 13.8395 29.5001 13.4529C29.5093 12.5923 29.6409 11.7386 29.5432 10.8681C29.2441 8.19281 27.9254 6.13126 25.588 4.66083C23.8828 3.58874 21.9802 3.24351 19.981 3.41465C18.9582 3.50219 17.9674 3.79431 17.0659 4.29101C16.7144 4.48378 16.3958 4.50739 16.0226 4.34117C15.4008 4.0638 14.7306 3.91823 14.0676 3.75595C13.971 3.73234 13.8199 3.75398 13.7994 3.62218C13.7839 3.52481 13.9011 3.4776 13.9731 3.42055C15.5272 2.18912 17.3064 1.42883 19.2954 1.13769C22.4129 0.680334 25.2467 1.36096 27.7476 3.20023C30.0592 4.90082 31.4448 7.15318 31.932 9.90717C32.0502 10.574 32.0461 10.578 32.6752 10.5239C34.2817 10.3862 35.8153 10.6576 37.2389 11.3697C39.8589 12.6798 41.4213 14.7463 41.9209 17.5406C41.9394 17.6429 41.9733 17.7413 42 17.8426V19.6484V19.6494Z" fill="#0C2048"/>
</svg>
